<svg width="20" height="21" viewBox="0 0 20 21" fill="none" xmlns="http://www.w3.org/2000/svg">
<path fill-rule="evenodd" clip-rule="evenodd" d="M6.45833 8.625H4.16667C3.24583 8.625 2.5 7.87917 2.5 6.95833V4.66667C2.5 3.74583 3.24583 3 4.16667 3H6.45833C7.37917 3 8.125 3.74583 8.125 4.66667V6.95833C8.125 7.87917 7.37917 8.625 6.45833 8.625Z" stroke="black" stroke-width="1.5" stroke-linecap="round" stroke-linejoin="round"/>
<path fill-rule="evenodd" clip-rule="evenodd" d="M15.8333 8.625H13.5417C12.6208 8.625 11.875 7.87917 11.875 6.95833V4.66667C11.875 3.74583 12.6208 3 13.5417 3H15.8333C16.7542 3 17.5 3.74583 17.5 4.66667V6.95833C17.5 7.87917 16.7542 8.625 15.8333 8.625Z" stroke="black" stroke-width="1.5" stroke-linecap="round" stroke-linejoin="round"/>
<path fill-rule="evenodd" clip-rule="evenodd" d="M6.45833 18H4.16667C3.24583 18 2.5 17.2542 2.5 16.3333V14.0417C2.5 13.1208 3.24583 12.375 4.16667 12.375H6.45833C7.37917 12.375 8.125 13.1208 8.125 14.0417V16.3333C8.125 17.2542 7.37917 18 6.45833 18Z" stroke="black" stroke-width="1.5" stroke-linecap="round" stroke-linejoin="round"/>
<path fill-rule="evenodd" clip-rule="evenodd" d="M15.8333 18H13.5417C12.6208 18 11.875 17.2542 11.875 16.3333V14.0417C11.875 13.1208 12.6208 12.375 13.5417 12.375H15.8333C16.7542 12.375 17.5 13.1208 17.5 14.0417V16.3333C17.5 17.2542 16.7542 18 15.8333 18Z" stroke="black" stroke-width="1.5" stroke-linecap="round" stroke-linejoin="round"/>
</svg>
