<svg width="64" height="65" viewBox="0 0 64 65" fill="none" xmlns="http://www.w3.org/2000/svg">
<g id="Boxicons">
<path id="Union" fill-rule="evenodd" clip-rule="evenodd" d="M58.6668 32.4999C58.6668 47.2039 46.7042 59.1666 32.0002 59.1666C17.2962 59.1666 5.3335 47.2039 5.3335 32.4999C5.3335 17.7959 17.2962 5.83325 32.0002 5.83325C46.7042 5.83325 58.6668 17.7959 58.6668 32.4999ZM53.3335 32.4999C53.3335 20.7373 43.7628 11.1666 32.0002 11.1666C20.2375 11.1666 10.6668 20.7373 10.6668 32.4999C10.6668 44.2626 20.2375 53.8333 32.0002 53.8333C43.7628 53.8333 53.3335 44.2626 53.3335 32.4999ZM43.3123 40.0414L39.5416 43.8121L32.0003 36.2707L24.459 43.8121L20.6883 40.0414L28.2296 32.5001L20.6883 24.9587L24.459 21.1881L32.0003 28.7294L39.5416 21.1881L43.3123 24.9587L35.771 32.5001L43.3123 40.0414Z" fill="#E7170B"/>
</g>
</svg>
