<svg xmlns="http://www.w3.org/2000/svg" width="40" height="40" viewBox="0 0 40 40" fill="none">
  <g clip-path="url(#clip0_176_10142)">
    <mask id="mask0_176_10142" style="mask-type:luminance" maskUnits="userSpaceOnUse" x="0" y="0" width="40" height="40">
      <path d="M40 0H0V40H40V0Z" fill="white"/>
    </mask>
    <g mask="url(#mask0_176_10142)">
      <path d="M20 40C31.0457 40 40 31.0457 40 20C40 8.95431 31.0457 0 20 0C8.95431 0 0 8.95431 0 20C0 31.0457 8.95431 40 20 40Z" fill="#231D9A"/>
      <path d="M21.9882 6.98912L19.9994 5.00037L18.0106 6.98912L19.9994 8.97787L21.9882 6.98912Z" fill="#FFD400"/>
      <path d="M15.3554 8.48234L13.3667 6.49353L11.3779 8.48234L13.3667 10.4711L15.3554 8.48234Z" fill="#FFD400"/>
      <path d="M10.4702 13.3674L8.48143 11.3787L6.49268 13.3674L8.48143 15.3562L10.4702 13.3674Z" fill="#FFD400"/>
      <path d="M8.9785 20.0001L6.98975 18.0114L5.00098 20.0001L6.98975 21.9889L8.9785 20.0001Z" fill="#FFD400"/>
      <path d="M10.4849 26.6572L8.49614 24.6685L6.50732 26.6572L8.49614 28.646L10.4849 26.6572Z" fill="#FFD400"/>
      <path d="M15.3341 31.5022L13.3453 29.5134L11.3566 31.5022L13.3453 33.491L15.3341 31.5022Z" fill="#FFD400"/>
      <path d="M26.7221 33.491L24.7332 31.5022L26.7221 29.5134L28.7108 31.5022L26.7221 33.491Z" fill="#FFD400"/>
      <path d="M21.9882 33.0112L19.9994 31.0225L18.0106 33.0112L19.9994 35L21.9882 33.0112Z" fill="#FFD400"/>
      <path d="M33.5024 26.6336L31.5137 24.6449L29.5249 26.6336L31.5137 28.6224L33.5024 26.6336Z" fill="#FFD400"/>
      <path d="M34.9996 20.0001L33.0109 18.0114L31.0221 20.0001L33.0109 21.9889L34.9996 20.0001Z" fill="#FFD400"/>
      <path d="M33.4914 13.3467L31.5027 11.3579L29.5139 13.3467L31.5027 15.3355L33.4914 13.3467Z" fill="#FFD400"/>
      <path d="M28.6471 8.49632L26.6583 6.50757L24.6696 8.49632L26.6583 10.4851L28.6471 8.49632Z" fill="#FFD400"/>
    </g>
  </g>
  <defs>
    <clipPath id="clip0_176_10142">
      <rect width="40" height="40" rx="20" fill="white"/>
    </clipPath>
  </defs>
</svg>