<svg width="25" height="24" viewBox="0 0 25 24" fill="none" xmlns="http://www.w3.org/2000/svg">
<g id="Icon / Facebook">
<path id="Vector" d="M16.761 5.82921H13.8463C13.3098 5.82921 12.8748 6.2642 12.8748 6.80077V9.71543H16.761C16.8715 9.71298 16.9763 9.76439 17.042 9.85329C17.1077 9.94219 17.1261 10.0574 17.0913 10.1623L16.3724 12.2998C16.3061 12.4959 16.1228 12.6285 15.9158 12.6301H12.8748V19.9167C12.8748 20.185 12.6573 20.4025 12.389 20.4025H9.96013C9.69185 20.4025 9.47436 20.185 9.47436 19.9167V12.6301H8.01703C7.74874 12.6301 7.53125 12.4126 7.53125 12.1443V10.2012C7.53125 9.93296 7.74874 9.71543 8.01703 9.71543H9.47436V6.80077C9.47436 4.65447 11.2143 2.91455 13.3606 2.91455H16.761C17.0293 2.91455 17.2468 3.13204 17.2468 3.40033V5.34343C17.2468 5.61172 17.0293 5.82921 16.761 5.82921Z" fill="white"/>
</g>
</svg>
