<svg width="28" height="28" viewBox="0 0 28 28" fill="none" xmlns="http://www.w3.org/2000/svg">
<g clip-path="url(#clip0_1009_11499)">
<path d="M14.0002 28C21.7322 28 28.0002 21.732 28.0002 14C28.0002 6.26801 21.7322 0 14.0002 0C6.26826 0 0.000244141 6.26801 0.000244141 14C0.000244141 21.732 6.26826 28 14.0002 28Z" fill="#F0F0F0"/>
<path d="M2.89407 5.47656C1.79436 6.90735 0.965136 8.55645 0.4823 10.348H7.76547L2.89407 5.47656Z" fill="#0052B4"/>
<path d="M27.5178 10.3481C27.035 8.5567 26.2057 6.9076 25.106 5.47681L20.2347 10.3481H27.5178Z" fill="#0052B4"/>
<path d="M0.4823 17.6523C0.965191 19.4438 1.79442 21.0929 2.89407 22.5236L7.76531 17.6523H0.4823Z" fill="#0052B4"/>
<path d="M22.5234 2.89425C21.0927 1.79454 19.4436 0.965312 17.6521 0.482422V7.76554L22.5234 2.89425Z" fill="#0052B4"/>
<path d="M5.47656 25.1061C6.90735 26.2058 8.55645 27.035 10.3479 27.5179V20.2349L5.47656 25.1061Z" fill="#0052B4"/>
<path d="M10.3479 0.482422C8.5564 0.965312 6.9073 1.79454 5.47656 2.89419L10.3479 7.76548V0.482422Z" fill="#0052B4"/>
<path d="M17.6521 27.5179C19.4436 27.035 21.0927 26.2058 22.5234 25.1062L17.6521 20.2349V27.5179Z" fill="#0052B4"/>
<path d="M20.2347 17.6523L25.106 22.5237C26.2057 21.093 27.035 19.4438 27.5178 17.6523H20.2347Z" fill="#0052B4"/>
<path d="M27.8817 12.1739H15.8264H15.8264V0.118508C15.2286 0.0406875 14.6191 0 14.0002 0C13.3812 0 12.7719 0.0406875 12.1742 0.118508V12.1738V12.1739H0.118752C0.0409316 12.7717 0.000244141 13.3811 0.000244141 14C0.000244141 14.619 0.0409316 15.2283 0.118752 15.8261H12.1741H12.1741V27.8815C12.7719 27.9593 13.3812 28 14.0002 28C14.6191 28 15.2286 27.9594 15.8263 27.8815V15.8262V15.8261H27.8817C27.9596 15.2283 28.0002 14.619 28.0002 14C28.0002 13.3811 27.9596 12.7717 27.8817 12.1739Z" fill="#D80027"/>
<path d="M17.6522 17.6524L23.8995 23.8997C24.1868 23.6125 24.4609 23.3122 24.7224 23.0009L19.3739 17.6523H17.6522V17.6524Z" fill="#D80027"/>
<path d="M10.3478 17.6523H10.3477L4.10046 23.8996C4.38768 24.1869 4.68797 24.461 4.99925 24.7225L10.3478 19.3739V17.6523Z" fill="#D80027"/>
<path d="M10.3478 10.3478V10.3477L4.10053 4.10034C3.8132 4.38756 3.5391 4.68785 3.27759 4.99913L8.62619 10.3477H10.3478V10.3478Z" fill="#D80027"/>
<path d="M17.6522 10.3479L23.8996 4.10047C23.6123 3.81314 23.312 3.53905 23.0008 3.27759L17.6522 8.62619V10.3479Z" fill="#D80027"/>
</g>
<defs>
<clipPath id="clip0_1009_11499">
<rect width="28" height="28" fill="white"/>
</clipPath>
</defs>
</svg>
