<svg width="24" height="24" viewBox="0 0 24 24" fill="none" xmlns="http://www.w3.org/2000/svg">
<g id="Icon / Instagram">
<path id="Vector" fill-rule="evenodd" clip-rule="evenodd" d="M15.5911 2.91455H7.81871C5.13584 2.91455 2.96094 5.08945 2.96094 7.77232V15.5447C2.96094 18.2276 5.13584 20.4025 7.81871 20.4025H15.5911C18.274 20.4025 20.4489 18.2276 20.4489 15.5447V7.77232C20.4489 5.08945 18.274 2.91455 15.5911 2.91455ZM18.7487 15.5447C18.7433 17.2864 17.3327 18.697 15.5911 18.7023H7.81871C6.07705 18.697 4.66649 17.2864 4.66116 15.5447V7.77232C4.66649 6.03066 6.07705 4.6201 7.81871 4.61477H15.5911C17.3327 4.6201 18.7433 6.03066 18.7487 7.77232V15.5447ZM16.3198 8.01521C16.8564 8.01521 17.2914 7.58022 17.2914 7.04365C17.2914 6.50708 16.8564 6.0721 16.3198 6.0721C15.7832 6.0721 15.3482 6.50708 15.3482 7.04365C15.3482 7.58022 15.7832 8.01521 16.3198 8.01521ZM11.7049 7.28654C9.29034 7.28654 7.33293 9.24395 7.33293 11.6585C7.33293 14.0731 9.29034 16.0305 11.7049 16.0305C14.1195 16.0305 16.0769 14.0731 16.0769 11.6585C16.0795 10.4982 15.6197 9.38468 14.7992 8.56421C13.9787 7.74374 12.8652 7.28396 11.7049 7.28654ZM9.03315 11.6585C9.03315 13.1341 10.2293 14.3303 11.7049 14.3303C13.1805 14.3303 14.3767 13.1341 14.3767 11.6585C14.3767 10.1829 13.1805 8.98676 11.7049 8.98676C10.2293 8.98676 9.03315 10.1829 9.03315 11.6585Z" fill="white"/>
</g>
</svg>
