<svg width="122" height="24" viewBox="0 0 122 24" fill="none" xmlns="http://www.w3.org/2000/svg">
<g id="Group">
<g id="Group_2">
<path id="Vector" d="M35.0655 16.9305C32.5687 16.9305 31.1501 14.9191 31.1501 11.8079V11.722C31.1501 8.65378 32.5902 6.64236 35.0028 6.64236C36.7814 6.64236 37.7754 7.51105 38.2626 9.64785L40.8454 9.11947C40.1881 6.09249 38.1355 4.52527 35.0243 4.52527C30.98 4.52527 28.5046 7.46807 28.5046 11.7864C28.5046 16.146 30.9603 19.0458 35.044 19.0458C38.1981 19.0458 40.3152 17.3747 40.8454 14.3692L38.2841 13.8605C37.9438 15.7663 37.0984 16.9305 35.0655 16.9305Z" fill="#F6D52D"/>
<path id="Vector_2" d="M47.6409 7.93298C44.2951 7.93298 42.3481 10.3241 42.3481 13.4783C42.3481 16.8241 44.0837 19.045 47.4707 19.045C50.7735 19.045 52.7635 16.5697 52.7635 13.3726C52.7635 10.0716 50.9634 7.93298 47.6409 7.93298ZM47.5137 17.1196C45.8408 17.1196 44.9739 15.5954 44.9739 13.4156C44.9739 11.2555 45.8838 9.81723 47.5979 9.81723C49.2708 9.81723 50.1377 11.277 50.1377 13.4371C50.1377 15.6383 49.2278 17.1196 47.5137 17.1196Z" fill="#F6D52D"/>
<path id="Vector_3" d="M57.6928 3.99646H55.2372C55.1101 3.99646 55.0474 4.05915 55.0474 4.18632V6.3876C55.0474 6.49327 55.0886 6.55775 55.1942 6.55775H57.6928C57.7985 6.55775 57.8612 6.49327 57.8612 6.3876V4.18632C57.8612 4.05915 57.7985 3.99646 57.6928 3.99646ZM55.1942 8.20916V18.7928H57.7143V8.20916H55.1942Z" fill="#F6D52D"/>
<path id="Vector_4" d="M67.0495 7.95532C65.3139 7.95532 64.0011 9.07656 63.4082 10.9393H63.2828C63.2828 10.9393 63.3455 9.94525 63.3455 9.64792V8.20966H60.8899V18.7933H63.4297V13.3519C63.4512 11.3208 64.6369 10.1566 65.9283 10.1566C66.9653 10.1566 67.6854 10.6438 67.6854 12.3794V18.7933H70.2664V11.722C70.2664 9.14104 69.0395 7.95532 67.0495 7.95532Z" fill="#F6D52D"/>
<path id="Vector_5" d="M76.2977 6.62059C76.2977 5.35069 76.7007 4.80082 77.9062 4.80082C78.3933 4.80082 78.8375 4.885 79.219 4.97098V3.08672C78.816 2.95956 78.2662 2.85388 77.3778 2.85388C75.0923 2.85388 73.9281 4.14527 73.9281 6.43073V8.20931H72.2964V10.2834H73.9281V18.793H76.2977V11.1503L76.2351 10.2834H78.499V8.20931H76.2351L76.2977 7.36211V6.62059Z" fill="#F6D52D"/>
<path id="Vector_6" d="M85.0176 7.93298C81.6736 7.93298 79.7249 10.3241 79.7249 13.4783C79.7249 16.8241 81.4604 19.045 84.8474 19.045C88.1502 19.045 90.1402 16.5697 90.1402 13.3726C90.1402 10.0716 88.3401 7.93298 85.0176 7.93298ZM84.8904 17.1196C83.2175 17.1196 82.3506 15.5954 82.3506 13.4156C82.3506 11.2555 83.2605 9.81723 84.9746 9.81723C86.6475 9.81723 87.5144 11.277 87.5144 13.4371C87.5144 15.6383 86.6045 17.1196 84.8904 17.1196Z" fill="#F6D52D"/>
<path id="Vector_7" d="M98.4813 8.03918C95.9612 8.03918 95.0728 10.7491 94.9027 12.8447H94.7343L94.9671 9.60641V8.20934H92.5742V18.793H95.0943V14.7075C95.1158 12.4202 95.877 11.1092 97.9296 11.1092H98.7553V8.03918H98.4813Z" fill="#F6D52D"/>
<path id="Vector_8" d="M110.313 8.10398C109.382 8.10398 108.703 8.50519 108.513 9.60673C107.771 8.58938 106.439 7.95532 104.682 7.95532C101.888 7.95532 100.216 9.62643 100.216 11.9352C100.216 13.4379 100.999 14.7078 102.375 15.3419C100.978 15.6804 100.322 16.2732 100.322 17.2476C100.322 18.2847 101.232 18.9402 102.248 19.1319C100.575 19.4704 99.7078 20.3176 99.7078 21.3743C99.7078 22.9416 101.105 24.0001 104.492 24.0001H104.66C108.239 24.0001 110.207 22.4974 110.207 20.4018C110.207 18.6662 109.149 17.819 106.544 17.5431L103.772 17.2906C102.776 17.1419 102.353 16.9306 102.353 16.4004C102.353 16.0619 102.735 15.7879 103.39 15.6804C103.772 15.7664 104.194 15.8076 104.639 15.8076C107.624 15.8076 109.19 14.1991 109.19 11.808C109.19 11.4265 109.127 11.0665 109.043 10.7065C109.36 10.4324 109.826 10.4109 110.207 10.4109C110.524 10.4109 110.693 10.4951 110.798 10.5578V8.18817C110.736 8.14518 110.524 8.10398 110.313 8.10398ZM103.095 19.4489C103.899 19.4919 105.063 19.5546 105.656 19.619C107.18 19.7659 107.963 19.9361 107.963 20.6346C107.963 21.4603 107.327 22.1785 105.063 22.1785H104.83C102.862 22.1588 101.952 21.523 101.952 20.7188C101.931 20.1044 102.31 19.6602 103.095 19.4489ZM104.766 14.072C103.328 14.072 102.67 13.1836 102.67 11.8707C102.67 10.6223 103.306 9.62643 104.703 9.62643C106.206 9.62643 106.82 10.5578 106.82 11.8492C106.82 13.1406 106.269 14.072 104.766 14.072Z" fill="#F6D52D"/>
<path id="Vector_9" d="M121.53 13.2669C121.53 10.1987 120.238 7.93298 116.873 7.93298C113.697 7.93298 111.834 10.0716 111.834 13.4998C111.834 16.9709 113.656 19.045 116.936 19.045C119.031 19.045 120.387 18.1155 121.191 16.9082L119.518 15.744C119.117 16.5267 118.205 17.0981 117.106 17.0981C115.603 17.0981 114.544 16.2312 114.396 14.0496H121.487C121.508 13.9225 121.53 13.4998 121.53 13.2669ZM118.925 12.4412H114.439C114.566 10.4943 115.497 9.79574 116.789 9.79574C118.376 9.79574 118.925 10.8543 118.925 12.4V12.4412Z" fill="#F6D52D"/>
</g>
<g id="Group_3">
<path id="Vector_10" d="M19.944 3.42103C17.8287 1.30751 14.9092 0 11.6834 0C8.45763 0 5.53633 1.30751 3.42103 3.42103C1.30751 5.53454 0 8.45584 0 11.6816C0 18.1332 5.23005 23.3633 11.6834 23.3633C14.9092 23.3633 17.8287 22.0558 19.944 19.9422C22.0575 17.8287 23.3651 14.9074 23.3651 11.6816C23.3651 8.45584 22.0575 5.53454 19.944 3.42103ZM9.2708 17.9362H5.63484C5.63484 16.9332 6.04142 16.0233 6.70055 15.3642C7.35789 14.705 8.26777 14.2984 9.2708 14.2984V17.9362ZM18.178 9.08273H10.795V10.0983H18.178V13.4405H10.6338C7.25221 13.4405 5.18706 12.527 5.18706 9.44633C5.18706 6.4283 7.08922 5.42707 10.0822 5.42707H18.178V9.08273Z" fill="#F6D52D"/>
</g>
</g>
</svg>
