<?xml version="1.0" encoding="utf-8"?>
<!-- Generator: Adobe Illustrator 28.0.0, SVG Export Plug-In . SVG Version: 6.00 Build 0)  -->
<svg version="1.1" id="Layer_1" xmlns="http://www.w3.org/2000/svg" xmlns:xlink="http://www.w3.org/1999/xlink" x="0px" y="0px"
	 viewBox="0 0 1190.55 523.69" style="enable-background:new 0 0 1190.55 523.69;" xml:space="preserve">
<style type="text/css">
	.st0{fill:#F6D52D;}
</style>
<rect width="1190.55" height="523.69"/>
<g>
	<g>
		<path class="st0" d="M470.18,287.66c-13.94,0-21.86-11.23-21.86-28.6v-0.48c0-17.13,8.04-28.36,21.51-28.36
			c9.93,0,15.48,4.85,18.2,16.78l14.42-2.95c-3.67-16.9-15.13-25.65-32.5-25.65c-22.58,0-36.4,16.43-36.4,40.54
			c0,24.34,13.71,40.53,36.51,40.53c17.61,0,29.43-9.33,32.39-26.11l-14.3-2.84C486.25,281.16,481.53,287.66,470.18,287.66z"/>
		<path class="st0" d="M540.38,237.43c-18.68,0-29.55,13.35-29.55,30.96c0,18.68,9.69,31.08,28.6,31.08
			c18.44,0,29.55-13.82,29.55-31.67C568.98,249.37,558.93,237.43,540.38,237.43z M539.67,288.72c-9.34,0-14.18-8.51-14.18-20.68
			c0-12.06,5.08-20.09,14.65-20.09c9.34,0,14.18,8.15,14.18,20.21C554.32,280.45,549.24,288.72,539.67,288.72z"/>
		<path class="st0" d="M596.51,215.45H582.8c-0.71,0-1.06,0.35-1.06,1.06v12.29c0,0.59,0.23,0.95,0.82,0.95h13.95
			c0.59,0,0.94-0.36,0.94-0.95v-12.29C597.45,215.8,597.1,215.45,596.51,215.45z M582.56,238.97v59.09h14.07v-59.09H582.56z"/>
		<path class="st0" d="M648.74,237.55c-9.69,0-17.02,6.26-20.33,16.66h-0.7c0,0,0.35-5.55,0.35-7.21v-8.03h-13.71v59.09h14.18
			v-30.38c0.12-11.34,6.74-17.84,13.95-17.84c5.79,0,9.81,2.72,9.81,12.41v35.81h14.41v-39.48
			C666.7,244.17,659.85,237.55,648.74,237.55z"/>
		<path class="st0" d="M700.38,230.1c0-7.09,2.25-10.16,8.98-10.16c2.72,0,5.2,0.47,7.33,0.95v-10.52c-2.25-0.71-5.32-1.3-10.28-1.3
			c-12.76,0-19.26,7.21-19.26,19.97v9.93h-9.11v11.58h9.11v47.51h13.23v-42.67l-0.35-4.84h12.64v-11.58h-12.64l0.35-4.73V230.1z"/>
		<path class="st0" d="M749.07,237.43c-18.67,0-29.55,13.35-29.55,30.96c0,18.68,9.69,31.08,28.6,31.08
			c18.44,0,29.55-13.82,29.55-31.67C777.67,249.37,767.62,237.43,749.07,237.43z M748.36,288.72c-9.34,0-14.18-8.51-14.18-20.68
			c0-12.06,5.08-20.09,14.65-20.09c9.34,0,14.18,8.15,14.18,20.21C763.01,280.45,757.93,288.72,748.36,288.72z"/>
		<path class="st0" d="M824.23,238.02c-14.07,0-19.03,15.13-19.98,26.83h-0.94l1.3-18.08v-7.8h-13.36v59.09h14.07v-22.81
			c0.12-12.77,4.37-20.09,15.83-20.09h4.61v-17.14H824.23z"/>
		<path class="st0" d="M890.29,238.38c-5.2,0-8.99,2.24-10.05,8.39c-4.14-5.68-11.58-9.22-21.39-9.22
			c-15.6,0-24.93,9.33-24.93,22.22c0,8.39,4.37,15.48,12.05,19.02c-7.8,1.89-11.46,5.2-11.46,10.64c0,5.79,5.08,9.45,10.75,10.52
			c-9.34,1.89-14.18,6.62-14.18,12.52c0,8.75,7.8,14.66,26.71,14.66h0.94c19.98,0,30.97-8.39,30.97-20.09
			c0-9.69-5.91-14.42-20.45-15.96l-15.48-1.41c-5.56-0.83-7.92-2.01-7.92-4.97c0-1.89,2.13-3.42,5.79-4.02
			c2.13,0.48,4.49,0.71,6.97,0.71c16.67,0,25.41-8.98,25.41-22.33c0-2.13-0.35-4.14-0.82-6.15c1.77-1.53,4.37-1.65,6.5-1.65
			c1.77,0,2.71,0.47,3.3,0.82v-13.23C892.65,238.61,891.47,238.38,890.29,238.38z M849.99,301.72c4.49,0.24,10.99,0.59,14.3,0.95
			c8.51,0.82,12.88,1.77,12.88,5.67c0,4.61-3.55,8.62-16.19,8.62h-1.3c-10.99-0.11-16.07-3.66-16.07-8.15
			C843.49,305.38,845.61,302.9,849.99,301.72z M859.32,271.7c-8.03,0-11.7-4.96-11.7-12.29c0-6.97,3.55-12.53,11.35-12.53
			c8.39,0,11.82,5.2,11.82,12.41C870.79,266.5,867.71,271.7,859.32,271.7z"/>
		<path class="st0" d="M952.92,267.21c0-17.13-7.21-29.78-26-29.78c-17.73,0-28.13,11.94-28.13,31.08
			c0,19.38,10.17,30.96,28.48,30.96c11.7,0,19.27-5.19,23.76-11.93l-9.34-6.5c-2.24,4.37-7.33,7.56-13.47,7.56
			c-8.39,0-14.3-4.84-15.13-17.02h39.59C952.8,270.87,952.92,268.51,952.92,267.21z M938.38,262.6h-25.05
			c0.71-10.87,5.91-14.77,13.12-14.77c8.86,0,11.93,5.91,11.93,14.54V262.6z"/>
	</g>
	<g>
		<path class="st0" d="M385.75,212.24c-11.81-11.8-28.11-19.1-46.12-19.1s-34.32,7.3-46.13,19.1c-11.8,11.8-19.1,28.11-19.1,46.12
			c0,36.02,29.2,65.22,65.23,65.22c18.01,0,34.31-7.3,46.12-19.1c11.8-11.8,19.1-28.11,19.1-46.12
			C404.85,240.35,397.55,224.04,385.75,212.24z M326.16,293.28h-20.3c0-5.6,2.27-10.68,5.95-14.36c3.67-3.68,8.75-5.95,14.35-5.95
			V293.28z M375.89,243.85h-41.22v5.67h41.22v18.66h-42.12c-18.88,0-30.41-5.1-30.41-22.3c0-16.85,10.62-22.44,27.33-22.44h45.2
			V243.85z"/>
	</g>
</g>
</svg>
