<?xml version="1.0" encoding="utf-8"?>
<!-- Generator: Adobe Illustrator 28.0.0, SVG Export Plug-In . SVG Version: 6.00 Build 0)  -->
<svg version="1.1" id="Layer_1" xmlns="http://www.w3.org/2000/svg" xmlns:xlink="http://www.w3.org/1999/xlink" x="0px" y="0px"
	 viewBox="0 0 1190.55 523.69" style="enable-background:new 0 0 1190.55 523.69;" xml:space="preserve">
<style type="text/css">
	.st0{fill:#F6D52D;}
</style>
<rect class="st0" width="1190.55" height="523.69"/>
<g>
	<g>
		<path d="M433.55,258.94c0-24.11,13.83-40.54,36.4-40.54c17.37,0,28.84,8.75,32.5,25.65L488.03,247
			c-2.72-11.94-8.27-16.78-18.2-16.78c-13.47,0-21.51,11.23-21.51,28.36v0.47c0,17.37,7.92,28.6,21.86,28.6
			c11.35,0,16.07-6.5,17.96-17.14l14.3,2.84c-2.95,16.78-14.77,26.12-32.38,26.12C447.26,299.47,433.55,283.28,433.55,258.94z"/>
		<path d="M510.83,268.39c0-17.61,10.87-30.96,29.54-30.96c18.55,0,28.6,11.94,28.6,30.37c0,17.84-11.11,31.67-29.54,31.67
			C520.52,299.47,510.83,287.07,510.83,268.39z M554.32,268.16c0-12.05-4.85-20.21-14.18-20.21c-9.57,0-14.65,8.04-14.65,20.09
			c0,12.17,4.85,20.68,14.18,20.68C549.24,288.72,554.32,280.45,554.32,268.16z"/>
		<path d="M581.74,228.8v-12.29c0-0.71,0.35-1.06,1.06-1.06h13.71c0.59,0,0.95,0.35,0.95,1.06v12.29c0,0.59-0.35,0.95-0.95,0.95
			h-13.95C581.97,229.75,581.74,229.39,581.74,228.8z M582.56,238.97h14.06v59.09h-14.06V238.97z"/>
		<path d="M614.35,238.97h13.71V247c0,1.65-0.35,7.21-0.35,7.21h0.71c3.31-10.4,10.64-16.66,20.33-16.66
			c11.11,0,17.96,6.62,17.96,21.04v39.47h-14.42v-35.81c0-9.69-4.02-12.41-9.81-12.41c-7.21,0-13.83,6.5-13.95,17.85v30.37h-14.18
			V238.97z"/>
		<path d="M687.15,250.55h-9.1v-11.58h9.1v-9.93c0-12.76,6.5-19.97,19.26-19.97c4.96,0,8.04,0.59,10.28,1.3v10.52
			c-2.13-0.47-4.61-0.95-7.33-0.95c-6.74,0-8.98,3.07-8.98,10.16v4.14l-0.35,4.73h12.65v11.58h-12.65l0.35,4.85v42.66h-13.24V250.55
			z"/>
		<path d="M719.52,268.39c0-17.61,10.87-30.96,29.54-30.96c18.55,0,28.6,11.94,28.6,30.37c0,17.84-11.11,31.67-29.54,31.67
			C729.21,299.47,719.52,287.07,719.52,268.39z M763.01,268.16c0-12.05-4.84-20.21-14.18-20.21c-9.57,0-14.65,8.04-14.65,20.09
			c0,12.17,4.84,20.68,14.18,20.68C757.93,288.72,763.01,280.45,763.01,268.16z"/>
		<path d="M791.25,238.97h13.35v7.8l-1.3,18.08h0.95c0.95-11.7,5.91-26.83,19.97-26.83h1.54v17.14h-4.61
			c-11.46,0-15.72,7.33-15.84,20.09v22.81h-14.06V238.97z"/>
		<path d="M831.08,312.47c0-5.91,4.85-10.64,14.18-12.53c-5.67-1.06-10.75-4.73-10.75-10.52c0-5.44,3.66-8.75,11.46-10.64
			c-7.68-3.54-12.05-10.64-12.05-19.03c0-12.88,9.34-22.22,24.94-22.22c9.81,0,17.25,3.55,21.39,9.22
			c1.06-6.15,4.85-8.39,10.04-8.39c1.18,0,2.36,0.24,2.72,0.47v13.24c-0.59-0.35-1.54-0.83-3.31-0.83c-2.13,0-4.73,0.12-6.5,1.65
			c0.47,2.01,0.83,4.02,0.83,6.15c0,13.35-8.75,22.34-25.41,22.34c-2.48,0-4.85-0.24-6.97-0.71c-3.66,0.59-5.79,2.13-5.79,4.02
			c0,2.96,2.36,4.14,7.92,4.96l15.48,1.42c14.54,1.54,20.45,6.26,20.45,15.95c0,11.7-10.99,20.09-30.96,20.09h-0.95
			C838.88,327.13,831.08,321.22,831.08,312.47z M860.98,316.96c12.65,0,16.19-4.02,16.19-8.63c0-3.9-4.37-4.84-12.88-5.67
			c-3.31-0.35-9.81-0.71-14.3-0.95c-4.37,1.18-6.5,3.66-6.38,7.09c0,4.49,5.08,8.04,16.07,8.15H860.98z M870.79,259.29
			c0-7.21-3.43-12.41-11.82-12.41c-7.8,0-11.34,5.55-11.34,12.53c0,7.33,3.66,12.29,11.7,12.29
			C867.71,271.7,870.79,266.5,870.79,259.29z"/>
		<path d="M952.68,271.58h-39.59c0.83,12.17,6.74,17.02,15.13,17.02c6.14,0,11.23-3.19,13.47-7.56l9.34,6.5
			c-4.49,6.74-12.05,11.94-23.75,11.94c-18.32,0-28.48-11.58-28.48-30.96c0-19.15,10.4-31.08,28.13-31.08c18.79,0,26,12.65,26,29.78
			C952.92,268.51,952.8,270.87,952.68,271.58z M913.33,262.6h25.05v-0.24c0-8.63-3.07-14.54-11.94-14.54
			C919.24,247.83,914.04,251.73,913.33,262.6z"/>
	</g>
	<g>
		<path d="M339.63,323.58L339.63,323.58c-36.02,0-65.22-29.2-65.22-65.22v0c0-36.02,29.2-65.22,65.22-65.22h0
			c36.02,0,65.22,29.2,65.22,65.22v0C404.85,294.38,375.65,323.58,339.63,323.58z"/>
		<g>
			<path class="st0" d="M303.36,245.88c0-16.85,10.63-22.44,27.33-22.44h45.2v20.41h-41.22v5.66h41.22v18.66h-42.13
				C314.89,268.18,303.36,263.08,303.36,245.88z"/>
			<path class="st0" d="M326.16,272.97L326.16,272.97l0,20.31h-20.31v0C305.86,282.07,314.95,272.97,326.16,272.97z"/>
		</g>
	</g>
</g>
</svg>
