<svg width="64" height="64" viewBox="0 0 64 64" fill="none" xmlns="http://www.w3.org/2000/svg">
<g id="schedule">
<path id="Vector" d="M34.9058 30.8058V21.6522C34.9058 20.8289 34.6273 20.1387 34.0704 19.5818C33.5134 19.0249 32.8233 18.7464 32 18.7464C31.1767 18.7464 30.4866 19.0249 29.9296 19.5818C29.3727 20.1387 29.0942 20.8289 29.0942 21.6522V31.8855C29.0942 32.2942 29.1688 32.6842 29.3181 33.0555C29.4674 33.4267 29.6913 33.7609 29.9899 34.058L38.5348 42.6029C39.0768 43.1449 39.7522 43.4159 40.5609 43.4159C41.3696 43.4159 42.0502 43.1449 42.6029 42.6029C43.1555 42.0609 43.4319 41.3802 43.4319 40.5609C43.4319 39.7415 43.1555 39.0555 42.6029 38.5029L34.9058 30.8058ZM32 59.2087C28.2261 59.2087 24.6851 58.495 21.377 57.0675C18.0689 55.6401 15.1913 53.7028 12.7443 51.2557C10.2972 48.8087 8.35993 45.9311 6.93246 42.623C5.50499 39.3149 4.79126 35.7739 4.79126 32C4.79126 28.2261 5.50499 24.6851 6.93246 21.377C8.35993 18.0689 10.2972 15.1913 12.7443 12.7443C15.1913 10.2972 18.0689 8.35993 21.377 6.93246C24.6851 5.50499 28.2261 4.79126 32 4.79126C35.7739 4.79126 39.3149 5.50499 42.623 6.93246C45.9311 8.35993 48.8087 10.2972 51.2557 12.7443C53.7028 15.1913 55.6401 18.0689 57.0675 21.377C58.495 24.6851 59.2087 28.2261 59.2087 32C59.2087 35.7739 58.495 39.3149 57.0675 42.623C55.6401 45.9311 53.7028 48.8087 51.2557 51.2557C48.8087 53.7028 45.9311 55.6401 42.623 57.0675C39.3149 58.495 35.7739 59.2087 32 59.2087ZM31.9999 53.142C37.8579 53.142 42.8461 51.0855 46.9645 46.9725C51.0828 42.8594 53.142 37.8686 53.142 32C53.142 26.1314 51.0829 21.1406 46.9646 17.0275C42.8464 12.9145 37.8582 10.858 32.0001 10.858C26.1421 10.858 21.1539 12.9145 17.0355 17.0275C12.9172 21.1406 10.858 26.1314 10.858 32C10.858 37.8686 12.9171 42.8594 17.0354 46.9725C21.1536 51.0855 26.1418 53.142 31.9999 53.142Z" fill="#F1C413"/>
</g>
</svg>
