<svg width="64" height="65" viewBox="0 0 64 65" fill="none" xmlns="http://www.w3.org/2000/svg">
<g id="Boxicons">
<path id="Union" fill-rule="evenodd" clip-rule="evenodd" d="M5.33325 32.5C5.33325 17.796 17.2959 5.83334 31.9999 5.83334C46.7039 5.83334 58.6666 17.796 58.6666 32.5C58.6666 47.204 46.7039 59.1667 31.9999 59.1667C17.2959 59.1667 5.33325 47.204 5.33325 32.5ZM10.6666 32.5C10.6666 44.2627 20.2373 53.8333 31.9999 53.8333C43.7626 53.8333 53.3333 44.2627 53.3333 32.5C53.3333 20.7373 43.7626 11.1667 31.9999 11.1667C20.2373 11.1667 10.6666 20.7373 10.6666 32.5ZM20.5333 30.6119L26.6639 36.7319L40.7813 22.6146L44.5519 26.3853L26.6693 44.2679L16.7679 34.3879L20.5333 30.6119Z" fill="#3CC383"/>
</g>
</svg>
