<svg width="28" height="28" viewBox="0 0 28 28" fill="none" xmlns="http://www.w3.org/2000/svg">
<g clip-path="url(#clip0_1005_2352)">
<path d="M13.9998 28C21.7317 28 27.9998 21.732 27.9998 14C27.9998 6.26801 21.7317 0 13.9998 0C6.26777 0 -0.000244141 6.26801 -0.000244141 14C-0.000244141 21.732 6.26777 28 13.9998 28Z" fill="#F0F0F0"/>
<path d="M13.3914 14.0001H28C28 12.7365 27.8316 11.5124 27.5177 10.3479H13.3914V14.0001Z" fill="#D80027"/>
<path d="M13.3914 6.69565H25.9452C25.0882 5.29718 23.9924 4.06108 22.7148 3.04346H13.3914V6.69565Z" fill="#D80027"/>
<path d="M13.9999 28C17.2948 28 20.3232 26.8612 22.7147 24.9565H5.28516C7.67664 26.8612 10.7051 28 13.9999 28Z" fill="#D80027"/>
<path d="M2.05484 21.3043H25.9452C26.6332 20.1816 27.1668 18.9544 27.5177 17.6521H0.4823C0.83323 18.9544 1.36682 20.1816 2.05484 21.3043Z" fill="#D80027"/>
<path d="M6.48482 2.1863H7.76062L6.5739 3.04845L7.02721 4.44347L5.84055 3.58132L4.65388 4.44347L5.04544 3.23832C4.00058 4.10867 3.08479 5.12838 2.3301 6.26456H2.73889L1.98349 6.81335C1.8658 7.00968 1.75293 7.20912 1.64476 7.41152L2.00547 8.52173L1.33249 8.03277C1.1652 8.3872 1.01219 8.74962 0.874646 9.11958L1.27206 10.3428H2.73889L1.55217 11.205L2.00547 12.6L0.818811 11.7379L0.107982 12.2543C0.036834 12.8262 -0.000244141 13.4088 -0.000244141 14H13.9998C13.9998 6.26806 13.9998 5.35653 13.9998 0C11.2341 0 8.65597 0.802266 6.48482 2.1863ZM7.02721 12.6L5.84055 11.7379L4.65388 12.6L5.10719 11.205L3.92047 10.3428H5.38729L5.84055 8.94781L6.2938 10.3428H7.76062L6.5739 11.205L7.02721 12.6ZM6.5739 7.12671L7.02721 8.52173L5.84055 7.65959L4.65388 8.52173L5.10719 7.12671L3.92047 6.26456H5.38729L5.84055 4.86954L6.2938 6.26456H7.76062L6.5739 7.12671ZM12.0489 12.6L10.8623 11.7379L9.67562 12.6L10.1289 11.205L8.9422 10.3428H10.409L10.8623 8.94781L11.3155 10.3428H12.7824L11.5956 11.205L12.0489 12.6ZM11.5956 7.12671L12.0489 8.52173L10.8623 7.65959L9.67562 8.52173L10.1289 7.12671L8.9422 6.26456H10.409L10.8623 4.86954L11.3155 6.26456H12.7824L11.5956 7.12671ZM11.5956 3.04845L12.0489 4.44347L10.8623 3.58132L9.67562 4.44347L10.1289 3.04845L8.9422 2.1863H10.409L10.8623 0.791273L11.3155 2.1863H12.7824L11.5956 3.04845Z" fill="#0052B4"/>
</g>
<defs>
<clipPath id="clip0_1005_2352">
<rect width="28" height="28" fill="white"/>
</clipPath>
</defs>
</svg>
