<svg width="20" height="21" viewBox="0 0 20 21" fill="none" xmlns="http://www.w3.org/2000/svg">
<path fill-rule="evenodd" clip-rule="evenodd" d="M16.6667 13.4166H15C14.0792 13.4166 13.3333 12.6708 13.3333 11.75V11.75C13.3333 10.8291 14.0792 10.0833 15 10.0833H16.6667C17.1267 10.0833 17.5 10.4566 17.5 10.9166V12.5833C17.5 13.0433 17.1267 13.4166 16.6667 13.4166Z" stroke="black" stroke-width="1.5" stroke-linecap="round" stroke-linejoin="round"/>
<path d="M16.6667 10.0834V7.58335C16.6667 6.66252 15.9208 5.91669 15 5.91669H3.75C3.06 5.91669 2.5 5.35669 2.5 4.66669V4.66669C2.5 3.97669 3.06 3.41669 3.75 3.41669H14.1667" stroke="black" stroke-width="1.5" stroke-linecap="round" stroke-linejoin="round"/>
<path d="M16.6667 13.4167V15.9167C16.6667 16.8375 15.9208 17.5834 15 17.5834H4.16667C3.24583 17.5834 2.5 16.8375 2.5 15.9167V4.66669" stroke="black" stroke-width="1.5" stroke-linecap="round" stroke-linejoin="round"/>
</svg>
