<svg xmlns="http://www.w3.org/2000/svg" version="1.1" xmlns:xlink="http://www.w3.org/1999/xlink" xmlns:svgjs="http://svgjs.dev/svgjs" width="130.4" height="130.4"><svg version="1.1" id="SvgjsSvg1005" xmlns="http://www.w3.org/2000/svg" xmlns:xlink="http://www.w3.org/1999/xlink" x="0px" y="0px" viewBox="0 0 130.4 130.4" style="enable-background:new 0 0 130.4 130.4;" xml:space="preserve">
<style type="text/css">
	.st0{fill:#F6D52D;}
</style>
<g>
	<path class="st0" d="M111.3,19.1C99.5,7.3,83.2,0,65.2,0c-18,0-34.3,7.3-46.1,19.1C7.3,30.9,0,47.2,0,65.2
		c0,36,29.2,65.2,65.2,65.2c18,0,34.3-7.3,46.1-19.1c11.8-11.8,19.1-28.1,19.1-46.1S123.1,30.9,111.3,19.1z M51.8,100.1H31.4
		c0-5.6,2.3-10.7,6-14.4c3.7-3.7,8.7-6,14.3-6V100.1z M101.5,50.7H60.3v5.7h41.2V75H59.3C40.5,75,29,69.9,29,52.7
		c0-16.9,10.6-22.4,27.3-22.4h45.2V50.7z"></path>
</g>
</svg><style>@media (prefers-color-scheme: light) { :root { filter: none; } }
@media (prefers-color-scheme: dark) { :root { filter: none; } }
</style></svg>